# Created by Kenney (www.kenney.nl)

mtllib stool.mtl

g mergedBlocks

v 4.22 0.3510028 0.12
v 4.22 1.39596E-15 0.12
v 4.22 0.3510028 0.22
v 4.22 1.452901E-15 0.22
v 4.12 1.452901E-15 0.22
v 4.12 1.452901E-15 0.12
v 4.12 0 0.14
v 3.88 4.97406E-13 0.22
v 3.78 4.97406E-13 0.22
v 3.88 0.3510028 0.22
v 3.78 0.3510028 0.22
v 4.22 1.576437E-15 -0.22
v 4.22 0.3510028 -0.22
v 4.12 1.633379E-15 -0.22
v 4.12 0.3510028 -0.22
v 4.12 0.1655014 0.145
v 4.12 0.1655014 0.195
v 4.12 0.2655014 0.195
v 4.12 0.2655014 0.145
v 4.12 0.3510028 0.12
v 4.12 0.3510028 0.22
v 3.78 4.97406E-13 0.12
v 3.805 0.1655014 0.12
v 3.78 0.3510028 0.12
v 3.805 0.2655014 0.12
v 3.855 0.2655014 0.12
v 3.855 0.1655014 0.12
v 3.88 4.973491E-13 0.12
v 3.88 0.3510028 0.12
v 3.88 4.975865E-13 -0.12
v 3.88 4.975296E-13 -0.22
v 3.78 4.975865E-13 -0.12
v 3.78 4.975865E-13 -0.22
v 3.855 0.2655014 -0.12
v 3.855 0.1655014 -0.12
v 3.78 0.3510028 -0.22
v 3.78 0.3510028 -0.12
v 4.145 0.1655014 0.12
v 4.145 0.2655014 0.12
v 4.195 0.2655014 0.12
v 4.195 0.1655014 0.12
v 3.88 0.2655014 -0.195
v 3.88 0.3510028 -0.22
v 3.88 0.3510028 -0.14
v 3.88 0.2655014 -0.145
v 3.88 0.1655014 -0.145
v 3.88 0.1655014 -0.195
v 3.88 0.3510028 -0.12
v 3.805 0.2655014 -0.12
v 3.805 0.1655014 -0.12
v 4.195 0.2655014 -0.12
v 4.195 0.1655014 -0.12
v 4.22 1.633379E-15 -0.12
v 4.12 1.633379E-15 -0.12
v 4.12 3.086279E-15 -0.14
v 4.22 0.3510028 -0.12
v 4.145 0.2655014 -0.12
v 4.145 0.1655014 -0.12
v 4.12 0.3510028 -0.12
v 3.88 0.3510028 0.14
v 3.88 0.2655014 0.145
v 3.88 0.2655014 0.195
v 3.88 0.1655014 0.195
v 3.88 0.1655014 0.145
v 4.12 0.1655014 -0.195
v 4.12 0.1655014 -0.145
v 4.12 0.2655014 -0.145
v 4.12 0.2655014 -0.195
v 4.26 0.4510028 -0.26
v 4.26 0.3510028 -0.26
v 4.26 0.4510028 0.26
v 4.26 0.3510028 0.26
v 3.74 0.4510028 -0.26
v 3.74 0.4510028 0.26
v 3.74 0.3510028 0.26
v 3.74 0.3510028 -0.26

vn 2 0 0
vn 0 -2 0
vn 0 0 2
vn 0 0 -2
vn -2 0 0
vn 0 2 0

vt -0.06 0.1755014
vt -0.06 6.979798E-16
vt -0.11 0.1755014
vt -0.11 7.264503E-16
vt -2.11 -0.11
vt -2.11 -0.06
vt -2.06 -0.11
vt -2.06 -0.06
vt 2.06 0
vt 2.06 7.264503E-16
vt 1.94 2.48703E-13
vt 1.89 2.48703E-13
vt 1.94 0.1755014
vt 1.89 0.1755014
vt -2.11 7.882187E-16
vt -2.11 0.1755014
vt -2.06 8.166893E-16
vt -2.06 0.1755014
vt 0.07 0
vt 0.0725 0.08275071
vt 0.11 7.264503E-16
vt 0.0975 0.08275071
vt 0.0975 0.1327507
vt 0.0725 0.1327507
vt 0.06 0.1755014
vt 0.06 7.264503E-16
vt 0.11 0.1755014
vt -1.89 2.48703E-13
vt -1.9025 0.08275071
vt -1.89 0.1755014
vt -1.9025 0.1327507
vt -1.9275 0.1327507
vt -1.9275 0.08275071
vt -1.94 2.486746E-13
vt -1.94 0.1755014
vt -1.94 0.06
vt -1.94 0.11
vt -1.89 0.06
vt -1.89 0.11
vt 0.06 0.1327507
vt 0.06 0.08275071
vt -0.06 0.1327507
vt -0.06 0.08275071
vt -0.11 2.487933E-13
vt -0.06 2.487933E-13
vt 2.11 7.264503E-16
vt 2.11 0.1755014
vt 2.06 0.1755014
vt -2.06 7.264503E-16
vt -2.0725 0.08275071
vt -2.0725 0.1327507
vt -2.0975 0.1327507
vt -2.0975 0.08275071
vt -2.11 6.979798E-16
vt -1.94 -0.11
vt -1.94 -0.06
vt -1.89 -0.11
vt -1.89 -0.06
vt 0.11 2.487648E-13
vt 0.07 0.1755014
vt 0.06 2.487933E-13
vt -1.9275 -0.06
vt -1.9275 0.06
vt -1.9025 -0.06
vt -1.9025 0.06
vt 1.89 2.487933E-13
vt 1.9275 0.08275071
vt 1.94 2.487933E-13
vt 1.9275 0.1327507
vt 1.9025 0.1327507
vt 1.9025 0.08275071
vt -2.11 0.06
vt -2.11 0.11
vt -2.06 0.06
vt -2.06 0.11
vt 2.06 1.54314E-15
vt 2.06 8.166893E-16
vt 2.0975 0.08275071
vt 2.11 8.166893E-16
vt 2.0975 0.1327507
vt 2.0725 0.1327507
vt 2.0725 0.08275071
vt -1.94 2.487648E-13
vt -1.89 2.487933E-13
vt -0.07 0.1755014
vt -0.0725 0.1327507
vt -0.0975 0.1327507
vt -0.0975 0.08275071
vt -0.0725 0.08275071
vt -0.06 2.486746E-13
vt -0.11 2.48703E-13
vt -2.0975 -0.06
vt -2.0975 0.06
vt -2.0725 -0.06
vt -2.0725 0.06
vt -0.11 8.166893E-16
vt -0.07 1.54314E-15
vt -0.06 8.166893E-16
vt 0.11 7.882187E-16
vt 0.06 8.166893E-16
vt 0.06 2.48703E-13
vt 0.11 2.48703E-13
vt 2.06 0.08275071
vt 1.94 0.08275071
vt 2.06 0.1327507
vt 1.94 0.1327507
vt -2.06 0.08275071
vt -2.06 0.1327507
vt -1.94 0.08275071
vt -1.94 0.1327507
vt -2.06 -0.0725
vt -1.94 -0.0725
vt -2.06 -0.0975
vt -1.94 -0.0975
vt -2.06 0.0725
vt -2.06 0.0975
vt -1.94 0.0725
vt -1.94 0.0975
vt 0.13 0.2255014
vt 0.13 0.1755014
vt -0.13 0.2255014
vt -0.13 0.1755014
vt -2.13 -0.13
vt -2.13 0.13
vt -1.87 -0.13
vt -1.87 0.13
vt 2.13 0.1755014
vt 1.87 0.1755014
vt 2.13 0.2255014
vt 1.87 0.2255014
vt -2.13 0.1755014
vt -2.13 0.2255014
vt -1.87 0.1755014
vt -1.87 0.2255014

usemtl woodLight(Clone)

f 3/3/1 2/2/1 1/1/1
f 2/2/1 3/3/1 4/4/1
f 5/7/2 2/6/2 4/5/2
f 2/6/2 5/7/2 6/8/2
f 6/10/2 5/10/2 7/9/2
f 10/13/3 9/12/3 8/11/3
f 9/12/3 10/13/3 11/14/3
f 14/17/4 13/16/4 12/15/4
f 13/16/4 14/17/4 15/18/4
f 5/21/5 16/20/5 7/19/5
f 16/20/5 5/21/5 17/22/5
f 17/22/5 5/21/5 18/23/5
f 19/24/5 7/19/5 16/20/5
f 20/25/5 7/19/5 19/24/5
f 7/19/5 20/25/5 6/26/5
f 20/25/5 19/24/5 21/27/5
f 21/27/5 19/24/5 18/23/5
f 21/27/5 18/23/5 5/21/5
f 24/30/4 23/29/4 22/28/4
f 23/29/4 24/30/4 25/31/4
f 25/31/4 24/30/4 26/32/4
f 27/33/4 22/28/4 23/29/4
f 27/33/4 28/34/4 22/28/4
f 28/34/4 27/33/4 29/35/4
f 29/35/4 27/33/4 26/32/4
f 29/35/4 26/32/4 24/30/4
f 32/38/2 31/37/2 30/36/2
f 31/37/2 32/38/2 33/39/2
f 26/42/1 35/41/1 34/40/1
f 35/41/1 26/42/1 27/43/1
f 32/45/5 36/3/5 33/44/5
f 36/3/5 32/45/5 37/1/5
f 3/47/3 5/10/3 4/46/3
f 5/10/3 3/47/3 21/48/3
f 20/18/4 38/50/4 6/49/4
f 38/50/4 20/18/4 39/51/4
f 39/51/4 20/18/4 40/52/4
f 41/53/4 6/49/4 38/50/4
f 41/53/4 2/54/4 6/49/4
f 2/54/4 41/53/4 1/16/4
f 1/16/4 41/53/4 40/52/4
f 1/16/4 40/52/4 20/18/4
f 9/57/2 28/56/2 8/55/2
f 28/56/2 9/57/2 22/58/2
f 43/27/1 42/23/1 31/59/1
f 42/23/1 43/27/1 44/60/1
f 42/23/1 44/60/1 45/24/1
f 45/24/1 44/60/1 46/20/1
f 47/22/1 31/59/1 42/23/1
f 31/59/1 47/22/1 30/61/1
f 30/61/1 47/22/1 46/20/1
f 30/61/1 46/20/1 44/60/1
f 30/61/1 44/60/1 48/25/1
f 49/64/6 26/63/6 34/62/6
f 26/63/6 49/64/6 25/65/6
f 30/68/3 35/67/3 32/66/3
f 35/67/3 30/68/3 48/13/3
f 35/67/3 48/13/3 34/69/3
f 34/69/3 48/13/3 49/70/3
f 50/71/3 32/66/3 35/67/3
f 32/66/3 50/71/3 37/14/3
f 37/14/3 50/71/3 49/70/3
f 37/14/3 49/70/3 48/13/3
f 40/42/1 52/41/1 51/40/1
f 52/41/1 40/42/1 41/43/1
f 54/74/2 12/73/2 53/72/2
f 12/73/2 54/74/2 14/75/2
f 14/77/2 54/77/2 55/76/2
f 53/79/3 52/78/3 54/77/3
f 52/78/3 53/79/3 56/47/3
f 52/78/3 56/47/3 51/80/3
f 51/80/3 56/47/3 57/81/3
f 58/82/3 54/77/3 52/78/3
f 54/77/3 58/82/3 59/48/3
f 59/48/3 58/82/3 57/81/3
f 59/48/3 57/81/3 56/47/3
f 33/84/4 43/35/4 31/83/4
f 43/35/4 33/84/4 36/30/4
f 10/3/1 61/86/1 60/85/1
f 61/86/1 10/3/1 62/87/1
f 62/87/1 10/3/1 63/88/1
f 64/89/1 60/85/1 61/86/1
f 28/90/1 60/85/1 64/89/1
f 60/85/1 28/90/1 29/1/1
f 28/90/1 64/89/1 8/91/1
f 8/91/1 64/89/1 63/88/1
f 8/91/1 63/88/1 10/3/1
f 38/94/2 52/93/2 41/92/2
f 52/93/2 38/94/2 58/95/2
f 58/43/5 39/40/5 57/42/5
f 39/40/5 58/43/5 38/41/5
f 14/96/5 65/88/5 15/3/5
f 65/88/5 14/96/5 55/97/5
f 65/88/5 55/97/5 66/89/5
f 66/89/5 55/97/5 67/86/5
f 68/87/5 15/3/5 65/88/5
f 15/3/5 68/87/5 59/1/5
f 59/1/5 68/87/5 67/86/5
f 59/1/5 67/86/5 55/97/5
f 59/1/5 55/97/5 54/98/5
f 56/25/1 12/99/1 13/27/1
f 12/99/1 56/25/1 53/100/1
f 57/94/6 40/93/6 51/92/6
f 40/93/6 57/94/6 39/95/6
f 50/43/5 25/40/5 49/42/5
f 25/40/5 50/43/5 23/41/5
f 23/64/2 35/63/2 27/62/2
f 35/63/2 23/64/2 50/65/2
f 9/102/5 24/25/5 22/101/5
f 24/25/5 9/102/5 11/27/5
f 67/105/3 46/104/3 66/103/3
f 46/104/3 67/105/3 45/106/3
f 47/109/4 68/108/4 65/107/4
f 68/108/4 47/109/4 42/110/4
f 68/113/6 45/112/6 67/111/6
f 45/112/6 68/113/6 42/114/6
f 46/117/2 65/116/2 66/115/2
f 65/116/2 46/117/2 47/118/2
f 19/115/6 62/118/6 18/116/6
f 62/118/6 19/115/6 61/117/6
f 64/109/4 19/108/4 16/107/4
f 19/108/4 64/109/4 61/110/4
f 63/114/2 16/111/2 17/113/2
f 16/111/2 63/114/2 64/112/2
f 18/105/3 63/104/3 17/103/3
f 63/104/3 18/105/3 62/106/3

usemtl wood(Clone)

f 71/121/1 70/120/1 69/119/1
f 70/120/1 71/121/1 72/122/1
f 73/125/6 71/124/6 69/123/6
f 71/124/6 73/125/6 74/126/6
f 72/123/2 3/5/2 70/124/2
f 3/5/2 72/123/2 75/125/2
f 3/5/2 75/125/2 21/7/2
f 21/7/2 75/125/2 10/55/2
f 21/7/2 10/55/2 20/8/2
f 20/8/2 10/55/2 59/74/2
f 59/74/2 10/55/2 15/75/2
f 10/55/2 75/125/2 11/57/2
f 11/57/2 75/125/2 24/58/2
f 24/58/2 75/125/2 37/38/2
f 37/38/2 75/125/2 36/39/2
f 13/73/2 70/124/2 3/5/2
f 70/124/2 13/73/2 76/126/2
f 76/126/2 13/73/2 15/75/2
f 76/126/2 36/39/2 75/125/2
f 13/47/2 3/47/2 1/47/2
f 13/47/2 1/47/2 56/47/2
f 20/8/2 56/72/2 1/6/2
f 56/72/2 20/8/2 59/74/2
f 76/126/2 15/75/2 43/37/2
f 43/37/2 15/75/2 10/55/2
f 76/126/2 43/37/2 36/39/2
f 43/13/2 10/13/2 60/13/2
f 43/13/2 60/13/2 29/13/2
f 43/13/2 29/13/2 48/13/2
f 24/58/2 48/36/2 29/56/2
f 48/36/2 24/58/2 37/38/2
f 43/13/2 48/13/2 44/13/2
f 71/129/3 75/128/3 72/127/3
f 75/128/3 71/129/3 74/130/3
f 75/120/5 73/121/5 76/122/5
f 73/121/5 75/120/5 74/119/5
f 76/133/4 69/132/4 70/131/4
f 69/132/4 76/133/4 73/134/4

