# Created by Kenney (www.kenney.nl)

mtllib block-double-high.mtl

g block

v -2.000007 0 2.000006
v 2.000007 0 2.000007
v -2.000007 0 -2.000007
v 2.000007 0 -2.000006
v 2.000007 0.8 2.000007
v -2.000007 0.8 2.000006
v -2.000007 0.8 -2.000007
v 2.000007 0.8 -2.000006
v 2.000007 4 -2.000006
v 2.000007 4 2.000007
v -2.000007 4 2.000006
v -2.000007 4 -2.000007

vn 0 -2 0
vn -2.384186E-07 0 2.000007
vn -2.000007 0 -2.384186E-07
vn 2.384186E-07 0 -2.000007
vn 2.000007 0 2.384186E-07
vn 0 2 0

vt 0.0625 0.0625
vt 0.1875 0.0625

usemtl block-double-high

f 3/1/1 2/1/1 1/1/1
f 2/1/1 3/1/1 4/1/1
f 6/2/2 2/1/2 5/2/2
f 2/1/2 6/2/2 1/1/2
f 6/2/3 3/1/3 1/1/3
f 3/1/3 6/2/3 7/2/3
f 3/1/4 8/2/4 4/1/4
f 8/2/4 3/1/4 7/2/4
f 8/2/5 2/1/5 4/1/5
f 2/1/5 8/2/5 5/2/5

usemtl block-double-high

f 9/2/5 5/2/5 8/2/5
f 5/2/5 9/2/5 10/2/5
f 9/2/6 11/2/6 10/2/6
f 11/2/6 9/2/6 12/2/6
f 11/2/2 5/2/2 10/2/2
f 5/2/2 11/2/2 6/2/2
f 11/2/3 7/2/3 6/2/3
f 7/2/3 11/2/3 12/2/3
f 7/2/4 9/2/4 8/2/4
f 9/2/4 7/2/4 12/2/4

