# Created by Kenney (www.kenney.nl)

mtllib castle-turret.mtl

g hexagon_base

v -5.307115 0 18.79989
v -5.307115 0.2 18.79989
v -6.692885 0 18.79989
v -6.692885 0.2 18.79989
v -4.61423 0 20
v -4.61423 0.2 20
v -5.422649 1 19
v -6.57735 1 19
v -7.38577 0.2 20
v -7.154701 1 20
v -6.692885 0.2 21.20011
v -6.577351 1 21
v -4.845299 1 20
v -6.692885 0 21.20011
v -7.38577 0 20
v -5.307115 0.2 21.20011
v -5.42265 1 21
v -5.307115 0 21.20011
v -4.845299 2 20
v -5.422649 2 19
v -6.577351 2 21
v -7.154701 2 20
v -5.42265 2 21
v -6.57735 2 19

vn 1.192093E-07 0 -1
vn 0.8660256 0 -0.4999999
vn 1.192093E-07 0.2426636 -0.9701107
vn -0.8401405 0.2426636 -0.4850554
vn -0.8401406 0.2426636 0.4850551
vn 0.8401406 0.2426636 -0.4850551
vn -0.8660256 0 0.4999999
vn -1.192093E-07 0.2426636 0.9701107
vn 0.8660255 0 0.5000002
vn -0.8660255 0 -0.5000002
vn -1.192093E-07 0 1
vn 0.8401405 0.2426636 0.4850554
vn 0 1 0
vn 0 -1 0

vt 0.0625 0.0625

usemtl castle-turret

f 3/1/1 2/1/1 1/1/1
f 2/1/1 3/1/1 4/1/1
f 2/1/2 5/1/2 1/1/2
f 5/1/2 2/1/2 6/1/2
f 4/1/3 7/1/3 2/1/3
f 7/1/3 4/1/3 8/1/3
f 10/1/4 4/1/4 9/1/4
f 4/1/4 10/1/4 8/1/4
f 12/1/5 9/1/5 11/1/5
f 9/1/5 12/1/5 10/1/5
f 7/1/6 6/1/6 2/1/6
f 6/1/6 7/1/6 13/1/6
f 11/1/7 15/1/7 14/1/7
f 15/1/7 11/1/7 9/1/7
f 17/1/8 11/1/8 16/1/8
f 11/1/8 17/1/8 12/1/8
f 6/1/9 18/1/9 5/1/9
f 18/1/9 6/1/9 16/1/9
f 9/1/10 3/1/10 15/1/10
f 3/1/10 9/1/10 4/1/10
f 11/1/11 18/1/11 16/1/11
f 18/1/11 11/1/11 14/1/11
f 13/1/12 16/1/12 6/1/12
f 16/1/12 13/1/12 17/1/12

usemtl castle-turret

f 7/1/2 19/1/2 13/1/2
f 19/1/2 7/1/2 20/1/2
f 23/1/13 22/1/13 21/1/13
f 22/1/13 23/1/13 19/1/13
f 22/1/13 19/1/13 24/1/13
f 24/1/13 19/1/13 20/1/13
f 21/1/11 17/1/11 23/1/11
f 17/1/11 21/1/11 12/1/11
f 21/1/7 10/1/7 12/1/7
f 10/1/7 21/1/7 22/1/7
f 8/1/1 20/1/1 7/1/1
f 20/1/1 8/1/1 24/1/1
f 19/1/9 17/1/9 13/1/9
f 17/1/9 19/1/9 23/1/9
f 15/1/14 18/1/14 14/1/14
f 18/1/14 15/1/14 5/1/14
f 5/1/14 15/1/14 3/1/14
f 5/1/14 3/1/14 1/1/14
f 22/1/10 8/1/10 10/1/10
f 8/1/10 22/1/10 24/1/10

g hexagon_overhangDetail%

v -5.42265 4 21
v -5.42265 3.5 21
v -6.577351 4 21
v -6.577351 3.5 21
v -5.422649 3.5 19
v -5.422649 4 19
v -6.57735 3.5 19
v -6.57735 4 19
v -7.154701 2.5 20
v -6.57735 2.5 19
v -6.577351 2.5 21
v -4.845299 2.5 20
v -5.42265 2.5 21
v -5.422649 2.5 19
v -7.154701 4 20
v -4.845299 4 20
v -7.154701 3.5 20
v -4.845299 3.5 20
v -6.692885 2.7 21.20011
v -7.38577 2.7 20
v -6.692885 3.3 21.20011
v -7.38577 3.3 20
v -5.307115 3.3 21.20011
v -5.307115 2.7 21.20011
v -4.61423 2.7 20
v -4.61423 3.3 20
v -6.692885 2.7 18.79989
v -6.692885 3.3 18.79989
v -5.307115 2.7 18.79989
v -5.307115 3.3 18.79989

vn -0.6122009 0.7073048 0.3534542
vn -0.6122009 0.7073048 -0.3534544
vn 0.6122009 0.7073048 0.3534544
vn -5.960464E-08 0.7073048 0.7069086
vn 0.6122009 0.7073048 -0.3534542
vn 0.6122009 -0.7073048 -0.3534542
vn 5.960464E-08 0.7073048 -0.7069086
vn -0.6122009 -0.7073048 0.3534542
vn -0.6122009 -0.7073048 -0.3534544
vn 5.960464E-08 -0.7073048 -0.7069086
vn -5.960464E-08 -0.7073048 0.7069086
vn 0.6122009 -0.7073048 0.3534544

vt 0.3125 0.0625

usemtl castle-turret

f 27/1/11 26/1/11 25/1/11
f 26/1/11 27/1/11 28/1/11
f 31/1/1 30/1/1 29/1/1
f 30/1/1 31/1/1 32/1/1
f 33/1/10 24/1/10 22/1/10
f 24/1/10 33/1/10 34/1/10
f 35/1/7 22/1/7 21/1/7
f 22/1/7 35/1/7 33/1/7
f 36/1/9 23/1/9 19/1/9
f 23/1/9 36/1/9 37/1/9
f 38/1/2 19/1/2 20/1/2
f 19/1/2 38/1/2 36/1/2
f 25/1/13 39/1/13 27/1/13
f 39/1/13 25/1/13 40/1/13
f 39/1/13 40/1/13 32/1/13
f 32/1/13 40/1/13 30/1/13
f 39/1/10 31/1/10 41/1/10
f 31/1/10 39/1/10 32/1/10
f 30/1/2 42/1/2 29/1/2
f 42/1/2 30/1/2 40/1/2
f 27/1/7 41/1/7 28/1/7
f 41/1/7 27/1/7 39/1/7
f 24/1/1 38/1/1 20/1/1
f 38/1/1 24/1/1 34/1/1
f 40/1/9 26/1/9 42/1/9
f 26/1/9 40/1/9 25/1/9
f 22/1/14 23/1/14 21/1/14
f 23/1/14 22/1/14 19/1/14
f 19/1/14 22/1/14 24/1/14
f 19/1/14 24/1/14 20/1/14
f 35/1/11 23/1/11 37/1/11
f 23/1/11 35/1/11 21/1/11

usemtl castle-turret

f 45/2/7 44/2/7 43/2/7
f 44/2/7 45/2/7 46/2/7
f 45/2/11 48/2/11 47/2/11
f 48/2/11 45/2/11 43/2/11
f 50/2/9 48/2/9 49/2/9
f 48/2/9 50/2/9 47/2/9
f 28/2/15 46/2/15 45/2/15
f 46/2/15 28/2/15 41/2/15
f 46/2/10 51/2/10 44/2/10
f 51/2/10 46/2/10 52/2/10
f 31/2/16 46/2/16 41/2/16
f 46/2/16 31/2/16 52/2/16
f 50/2/17 26/2/17 47/2/17
f 26/2/17 50/2/17 42/2/17
f 54/2/2 49/2/2 53/2/2
f 49/2/2 54/2/2 50/2/2
f 47/2/18 28/2/18 45/2/18
f 28/2/18 47/2/18 26/2/18
f 51/2/1 54/2/1 53/2/1
f 54/2/1 51/2/1 52/2/1
f 50/2/19 29/2/19 42/2/19
f 29/2/19 50/2/19 54/2/19
f 38/2/20 49/2/20 36/2/20
f 49/2/20 38/2/20 53/2/20
f 29/2/21 52/2/21 31/2/21
f 52/2/21 29/2/21 54/2/21
f 44/2/22 35/2/22 43/2/22
f 35/2/22 44/2/22 33/2/22
f 51/2/23 33/2/23 44/2/23
f 33/2/23 51/2/23 34/2/23
f 51/2/24 38/2/24 34/2/24
f 38/2/24 51/2/24 53/2/24
f 35/2/25 48/2/25 43/2/25
f 48/2/25 35/2/25 37/2/25
f 37/2/26 49/2/26 48/2/26
f 49/2/26 37/2/26 36/2/26

g hexagon_pointLarge%

v -7.385641 4.4 20
v -6.69282 4.4 18.8
v -6.692821 4.4 21.2
v -5.30718 4.4 21.2
v -4.614359 4.4 20
v -5.307179 4.4 18.8
v -5.307179 4.6 18.8
v -6.69282 4.6 18.8
v -7.385641 4.6 20
v -6.692821 4.6 21.2
v -5.30718 4.6 21.2
v -4.614359 4.6 20
v -7.235347 4.751851 20
v -6.617673 4.751851 18.93016
v -6.617673 4.751851 21.06984
v -5.382327 4.751851 21.06984
v -4.764653 4.751851 20
v -5.382327 4.751851 18.93016
v -6 6 20

vn -0.7745968 -0.4472136 -0.4472138
vn -0.7745969 -0.4472136 0.4472135
vn -1.192093E-07 -0.4472136 0.8944273
vn 0.7745968 -0.4472136 0.4472138
vn 0.7745969 -0.4472136 -0.4472135
vn 1.192093E-07 -0.4472136 -0.8944273
vn -0.6575355 0.6507913 -0.3796284
vn -0.6575356 0.6507913 0.3796283
vn -1.192093E-07 0.6507913 0.7592567
vn 0.6575355 0.6507913 0.3796284
vn 0.6575356 0.6507913 -0.3796283
vn 1.192093E-07 0.6507913 -0.7592567

vt 0.1875 0.0625

usemtl castle-turret

f 39/2/14 25/2/14 27/2/14
f 25/2/14 39/2/14 40/2/14
f 40/2/14 39/2/14 32/2/14
f 40/2/14 32/2/14 30/2/14
f 55/2/27 32/2/27 39/2/27
f 32/2/27 55/2/27 56/2/27
f 57/2/28 39/2/28 27/2/28
f 39/2/28 57/2/28 55/2/28
f 57/2/29 25/2/29 58/2/29
f 25/2/29 57/2/29 27/2/29
f 59/2/30 25/2/30 40/2/30
f 25/2/30 59/2/30 58/2/30
f 60/2/31 40/2/31 30/2/31
f 40/2/31 60/2/31 59/2/31
f 30/2/32 56/2/32 60/2/32
f 56/2/32 30/2/32 32/2/32

usemtl castle-turret

f 56/2/1 61/2/1 60/2/1
f 61/2/1 56/2/1 62/2/1
f 63/2/10 56/2/10 55/2/10
f 56/2/10 63/2/10 62/2/10
f 64/2/7 55/2/7 57/2/7
f 55/2/7 64/2/7 63/2/7
f 64/2/11 58/2/11 65/2/11
f 58/2/11 64/2/11 57/2/11
f 66/2/9 58/2/9 59/2/9
f 58/2/9 66/2/9 65/2/9
f 61/2/2 59/2/2 60/2/2
f 59/2/2 61/2/2 66/2/2
f 67/3/33 62/2/33 63/2/33
f 62/2/33 67/3/33 68/3/33
f 69/3/34 63/2/34 64/2/34
f 63/2/34 69/3/34 67/3/34
f 70/3/35 64/2/35 65/2/35
f 64/2/35 70/3/35 69/3/35
f 71/3/36 65/2/36 66/2/36
f 65/2/36 71/3/36 70/3/36
f 72/3/37 66/2/37 61/2/37
f 66/2/37 72/3/37 71/3/37
f 62/2/38 72/3/38 61/2/38
f 72/3/38 62/2/38 68/3/38

usemtl castle-turret

f 69/3/35 70/3/35 73/3/35
f 73/3/36 70/3/36 71/3/36
f 73/3/37 71/3/37 72/3/37
f 73/3/34 67/3/34 69/3/34
f 68/3/38 73/3/38 72/3/38
f 73/3/33 68/3/33 67/3/33

g block

v -13 0 15
v -11 0 15
v -13 0 13
v -11 0 13
v -11 0.4 15
v -13 0.4 15
v -13 0.4 13
v -11 0.4 13
v -11 2 13
v -11 2 15
v -13 2 15
v -13 2 13

vn -1.192093E-07 0 1.000001
vn -1.000001 0 -1.192093E-07
vn 1.192093E-07 0 -1.000001
vn 1.000001 0 1.192093E-07


usemtl castle-turret

f 76/1/14 75/1/14 74/1/14
f 75/1/14 76/1/14 77/1/14
f 79/3/39 75/1/39 78/3/39
f 75/1/39 79/3/39 74/1/39
f 79/3/40 76/1/40 74/1/40
f 76/1/40 79/3/40 80/3/40
f 76/1/41 81/3/41 77/1/41
f 81/3/41 76/1/41 80/3/41
f 81/3/42 75/1/42 77/1/42
f 75/1/42 81/3/42 78/3/42

usemtl castle-turret

f 82/3/42 78/3/42 81/3/42
f 78/3/42 82/3/42 83/3/42
f 82/3/13 84/3/13 83/3/13
f 84/3/13 82/3/13 85/3/13
f 84/3/39 78/3/39 83/3/39
f 78/3/39 84/3/39 79/3/39
f 84/3/40 80/3/40 79/3/40
f 80/3/40 84/3/40 85/3/40
f 80/3/41 82/3/41 81/3/41
f 82/3/41 80/3/41 85/3/41

g block

v -9.000001 0 15
v -6.999999 0 15
v -9.000001 0 13
v -6.999999 0 13
v -6.999999 0.8 15
v -9.000001 0.8 15
v -9.000001 0.8 13
v -6.999999 0.8 13
v -6.999999 4 13
v -6.999999 4 15
v -9.000001 4 15
v -9.000001 4 13

vn 0 -2 0
vn 0 2 0


usemtl castle-turret

f 88/1/43 87/1/43 86/1/43
f 87/1/43 88/1/43 89/1/43
f 91/3/39 87/1/39 90/3/39
f 87/1/39 91/3/39 86/1/39
f 91/3/40 88/1/40 86/1/40
f 88/1/40 91/3/40 92/3/40
f 88/1/41 93/3/41 89/1/41
f 93/3/41 88/1/41 92/3/41
f 93/3/42 87/1/42 89/1/42
f 87/1/42 93/3/42 90/3/42

usemtl castle-turret

f 94/3/42 90/3/42 93/3/42
f 90/3/42 94/3/42 95/3/42
f 94/3/44 96/3/44 95/3/44
f 96/3/44 94/3/44 97/3/44
f 96/3/39 90/3/39 95/3/39
f 90/3/39 96/3/39 91/3/39
f 96/3/40 92/3/40 91/3/40
f 92/3/40 96/3/40 97/3/40
f 92/3/41 94/3/41 93/3/41
f 94/3/41 92/3/41 97/3/41

g block

v -2 0 16
v -2 0 14
v -6 0 16
v -6 0 14
v -2 0.4 14
v -2 0.4 16
v -6 0.4 16
v -6 0.4 14
v -6 2 14
v -2 2 14
v -2 2 16
v -6 2 16

vn 2 0 0
vn 0 0 1
vn -2 0 0
vn 0 0 -1


usemtl castle-turret

f 100/1/14 99/1/14 98/1/14
f 99/1/14 100/1/14 101/1/14
f 103/3/45 99/1/45 102/3/45
f 99/1/45 103/3/45 98/1/45
f 103/3/46 100/1/46 98/1/46
f 100/1/46 103/3/46 104/3/46
f 100/1/47 105/3/47 101/1/47
f 105/3/47 100/1/47 104/3/47
f 105/3/48 99/1/48 101/1/48
f 99/1/48 105/3/48 102/3/48

usemtl castle-turret

f 106/3/48 102/3/48 105/3/48
f 102/3/48 106/3/48 107/3/48
f 106/3/13 108/3/13 107/3/13
f 108/3/13 106/3/13 109/3/13
f 108/3/45 102/3/45 107/3/45
f 102/3/45 108/3/45 103/3/45
f 108/3/46 104/3/46 103/3/46
f 104/3/46 108/3/46 109/3/46
f 104/3/47 106/3/47 105/3/47
f 106/3/47 104/3/47 109/3/47

g block

v -1.000002 0 19
v 3.000002 0 19
v -1.000002 0 15
v 3.000002 0 15
v 3.000002 0.4 19
v -1.000002 0.4 19
v -1.000002 0.4 15
v 3.000002 0.4 15
v 3.000002 2 15
v 3.000002 2 19
v -1.000002 2 19
v -1.000002 2 15

vn -2.384186E-07 0 2.000002
vn -2.000002 0 -2.384186E-07
vn 2.384186E-07 0 -2.000002
vn 2.000002 0 2.384186E-07


usemtl castle-turret

f 112/1/14 111/1/14 110/1/14
f 111/1/14 112/1/14 113/1/14
f 115/3/49 111/1/49 114/3/49
f 111/1/49 115/3/49 110/1/49
f 115/3/50 112/1/50 110/1/50
f 112/1/50 115/3/50 116/3/50
f 112/1/51 117/3/51 113/1/51
f 117/3/51 112/1/51 116/3/51
f 117/3/52 111/1/52 113/1/52
f 111/1/52 117/3/52 114/3/52

usemtl castle-turret

f 118/3/52 114/3/52 117/3/52
f 114/3/52 118/3/52 119/3/52
f 118/3/13 120/3/13 119/3/13
f 120/3/13 118/3/13 121/3/13
f 120/3/49 114/3/49 119/3/49
f 114/3/49 120/3/49 115/3/49
f 120/3/50 116/3/50 115/3/50
f 116/3/50 120/3/50 121/3/50
f 116/3/51 118/3/51 117/3/51
f 118/3/51 116/3/51 121/3/51

g block

v 6.999998 0 15
v 11 0 15
v 6.999998 0 11
v 11 0 11
v 11 0.8 15
v 6.999998 0.8 15
v 6.999998 0.8 11
v 11 0.8 11
v 11 4 11
v 11 4 15
v 6.999998 4 15
v 6.999998 4 11



usemtl castle-turret

f 124/1/43 123/1/43 122/1/43
f 123/1/43 124/1/43 125/1/43
f 127/3/49 123/1/49 126/3/49
f 123/1/49 127/3/49 122/1/49
f 127/3/50 124/1/50 122/1/50
f 124/1/50 127/3/50 128/3/50
f 124/1/51 129/3/51 125/1/51
f 129/3/51 124/1/51 128/3/51
f 129/3/52 123/1/52 125/1/52
f 123/1/52 129/3/52 126/3/52

usemtl castle-turret

f 130/3/52 126/3/52 129/3/52
f 126/3/52 130/3/52 131/3/52
f 130/3/44 132/3/44 131/3/44
f 132/3/44 130/3/44 133/3/44
f 132/3/49 126/3/49 131/3/49
f 126/3/49 132/3/49 127/3/49
f 132/3/50 128/3/50 127/3/50
f 128/3/50 132/3/50 133/3/50
f 128/3/51 130/3/51 129/3/51
f 130/3/51 128/3/51 133/3/51

g hexagon_castleBattlement

v -9.422648 4 21
v -10.17353 4 20.60111
v -10.57735 4 21
v -10.43382 4 20.45083
v -11.1547 4 20
v -10.60734 4 20.15028
v -10.60734 4 19.84972
v -10.57735 4 19
v -10.43382 4 19.54917
v -10.17353 4 19.39889
v -9.826473 4 19.39889
v -9.826474 4 20.60111
v -9.566184 4 20.45083
v -8.845296 4 20
v -9.392658 4 20.15028
v -9.392658 4 19.84972
v -9.422647 4 19
v -9.566184 4 19.54917
v -9.422647 4.6 19
v -9.711324 4.3 19
v -10.28868 4.3 19
v -10.28868 4.6 19
v -10.57735 4.6 19
v -9.711324 4.6 19
v -9.27831 4.3 19.25
v -9.27831 4.6 19.25
v -8.989634 4.3 19.75
v -8.845296 4.6 20
v -8.989634 4.6 19.75
v -8.989634 4.3 20.25
v -8.989634 4.6 20.25
v -9.27831 4.3 20.75
v -9.422648 4.6 21
v -9.27831 4.6 20.75
v -10.28868 4.6 21
v -10.28868 4.3 21
v -10.57735 4.6 21
v -9.711324 4.3 21
v -9.711324 4.6 21
v -10.72169 4.3 20.75
v -10.72169 4.6 20.75
v -11.01037 4.3 20.25
v -11.1547 4.6 20
v -11.01037 4.6 20.25
v -11.01037 4.3 19.75
v -11.01037 4.6 19.75
v -10.72169 4.3 19.25
v -10.72169 4.6 19.25
v -10.17353 4.6 20.60111
v -10.43382 4.6 20.45083
v -10.60734 4.6 20.15028
v -10.60734 4.6 19.84972
v -10.43382 4.6 19.54917
v -10.17353 4.6 19.39889
v -9.826474 4.6 20.60111
v -9.566184 4.6 20.45083
v -9.392658 4.6 20.15028
v -9.392658 4.6 19.84972
v -9.566184 4.6 19.54917
v -9.826473 4.6 19.39889
v -10.43382 4.3 20.45083
v -10.60734 4.3 20.15028
v -9.826474 4.3 20.60111
v -10.17353 4.3 20.60111
v -9.392658 4.3 20.15028
v -9.566184 4.3 20.45083
v -9.392658 4.3 19.84972
v -9.566184 4.3 19.54917
v -9.826473 4.3 19.39889
v -10.17353 4.3 19.39889
v -10.60734 4.3 19.84972
v -10.43382 4.3 19.54917

vn 1.192093E-07 0 -1.000003
vn 0.8660281 0 -0.5000014
vn 0.866028 0 0.5000016
vn -1.192093E-07 0 1.000003
vn -0.8660281 0 0.5000014
vn -0.866028 0 -0.5000016
vn 0.2401929 0 0.9707284
vn -0.7205788 0 -0.6933773
vn 0.9607718 0 0.277351
vn -0.9607718 0 0.2773508
vn 0.7205789 0 -0.6933772
vn -0.2401931 0 0.9707283
vn -0.2401929 0 -0.9707284
vn 0.7205788 0 0.6933773
vn 0.9607718 0 -0.2773508
vn -0.9607718 0 -0.277351
vn -0.7205789 0 0.6933772
vn 0.2401931 0 -0.9707283
vn 0.5000014 0 0.8660281
vn -0.5000016 0 0.866028
vn -1.000003 0 -1.192093E-07
vn -0.5000014 0 -0.8660281
vn 0.5000016 0 -0.866028
vn 1.000003 0 1.192093E-07


usemtl castle-turret

f 136/1/14 135/1/14 134/1/14
f 135/1/14 136/1/14 137/1/14
f 137/1/14 136/1/14 138/1/14
f 137/1/14 138/1/14 139/1/14
f 139/1/14 138/1/14 140/1/14
f 140/1/14 138/1/14 141/1/14
f 140/1/14 141/1/14 142/1/14
f 142/1/14 141/1/14 143/1/14
f 143/1/14 141/1/14 144/1/14
f 145/1/14 134/1/14 135/1/14
f 146/1/14 134/1/14 145/1/14
f 134/1/14 146/1/14 147/1/14
f 147/1/14 146/1/14 148/1/14
f 147/1/14 148/1/14 149/1/14
f 147/1/14 149/1/14 150/1/14
f 150/1/14 144/1/14 141/1/14
f 150/1/14 149/1/14 151/1/14
f 150/1/14 151/1/14 144/1/14
f 150/1/53 153/1/53 152/1/53
f 153/1/53 150/1/53 141/1/53
f 153/1/53 141/1/53 154/1/53
f 154/1/53 141/1/53 155/1/53
f 155/1/53 141/1/53 156/1/53
f 157/1/53 152/1/53 153/1/53
f 150/1/54 158/1/54 147/1/54
f 158/1/54 150/1/54 152/1/54
f 158/1/54 152/1/54 159/1/54
f 160/1/54 147/1/54 158/1/54
f 147/1/54 160/1/54 161/1/54
f 161/1/54 160/1/54 162/1/54
f 147/1/55 163/1/55 134/1/55
f 163/1/55 147/1/55 161/1/55
f 163/1/55 161/1/55 164/1/55
f 165/1/55 134/1/55 163/1/55
f 134/1/55 165/1/55 166/1/55
f 166/1/55 165/1/55 167/1/55
f 170/1/56 169/1/56 168/1/56
f 136/1/56 169/1/56 170/1/56
f 136/1/56 171/1/56 169/1/56
f 134/1/56 171/1/56 136/1/56
f 134/1/56 172/1/56 171/1/56
f 172/1/56 134/1/56 166/1/56
f 136/1/57 173/1/57 138/1/57
f 173/1/57 136/1/57 170/1/57
f 173/1/57 170/1/57 174/1/57
f 175/1/57 138/1/57 173/1/57
f 138/1/57 175/1/57 176/1/57
f 176/1/57 175/1/57 177/1/57
f 138/1/58 178/1/58 141/1/58
f 178/1/58 138/1/58 176/1/58
f 178/1/58 176/1/58 179/1/58
f 180/1/58 141/1/58 178/1/58
f 141/1/58 180/1/58 156/1/58
f 156/1/58 180/1/58 181/1/58
f 168/1/13 174/1/13 170/1/13
f 174/1/13 168/1/13 182/1/13
f 174/1/13 182/1/13 183/1/13
f 184/1/13 176/1/13 177/1/13
f 176/1/13 184/1/13 185/1/13
f 176/1/13 185/1/13 179/1/13
f 187/1/13 181/1/13 186/1/13
f 181/1/13 187/1/13 155/1/13
f 181/1/13 155/1/13 156/1/13
f 166/1/13 188/1/13 172/1/13
f 188/1/13 166/1/13 167/1/13
f 188/1/13 167/1/13 189/1/13
f 161/1/13 190/1/13 164/1/13
f 190/1/13 161/1/13 191/1/13
f 191/1/13 161/1/13 162/1/13
f 159/1/13 193/1/13 192/1/13
f 193/1/13 159/1/13 157/1/13
f 157/1/13 159/1/13 152/1/13
f 139/1/54 194/1/54 137/1/54
f 194/1/54 139/1/54 195/1/54
f 135/1/53 196/1/53 145/1/53
f 196/1/53 135/1/53 197/1/53
f 146/1/58 198/1/58 148/1/58
f 198/1/58 146/1/58 199/1/58
f 200/1/57 151/1/57 149/1/57
f 151/1/57 200/1/57 201/1/57
f 203/1/56 144/1/56 202/1/56
f 144/1/56 203/1/56 143/1/56
f 142/1/55 204/1/55 140/1/55
f 204/1/55 142/1/55 205/1/55
f 194/1/13 175/1/13 173/1/13
f 175/1/13 194/1/13 195/1/13
f 177/1/59 195/1/59 184/1/59
f 195/1/59 177/1/59 175/1/59
f 174/1/60 194/1/60 173/1/60
f 194/1/60 174/1/60 183/1/60
f 171/1/13 197/1/13 169/1/13
f 197/1/13 171/1/13 196/1/13
f 182/1/61 169/1/61 197/1/61
f 169/1/61 182/1/61 168/1/61
f 172/1/62 196/1/62 171/1/62
f 196/1/62 172/1/62 188/1/62
f 163/1/13 199/1/13 165/1/13
f 199/1/13 163/1/13 198/1/13
f 189/1/63 165/1/63 199/1/63
f 165/1/63 189/1/63 167/1/63
f 190/1/64 163/1/64 164/1/64
f 163/1/64 190/1/64 198/1/64
f 160/1/13 201/1/13 200/1/13
f 201/1/13 160/1/13 158/1/13
f 200/1/65 162/1/65 160/1/65
f 162/1/65 200/1/65 191/1/65
f 159/1/66 201/1/66 158/1/66
f 201/1/66 159/1/66 192/1/66
f 202/1/13 154/1/13 203/1/13
f 154/1/13 202/1/13 153/1/13
f 155/1/67 203/1/67 154/1/67
f 203/1/67 155/1/67 187/1/67
f 193/1/68 153/1/68 202/1/68
f 153/1/68 193/1/68 157/1/68
f 205/1/13 178/1/13 204/1/13
f 178/1/13 205/1/13 180/1/13
f 186/1/69 180/1/69 205/1/69
f 180/1/69 186/1/69 181/1/69
f 178/1/70 185/1/70 204/1/70
f 185/1/70 178/1/70 179/1/70
f 186/1/71 203/1/71 187/1/71
f 203/1/71 186/1/71 143/1/71
f 143/1/71 186/1/71 142/1/71
f 142/1/71 186/1/71 205/1/71
f 193/1/72 201/1/72 192/1/72
f 201/1/72 193/1/72 151/1/72
f 151/1/72 193/1/72 144/1/72
f 144/1/72 193/1/72 202/1/72
f 198/1/73 149/1/73 148/1/73
f 149/1/73 198/1/73 200/1/73
f 200/1/73 198/1/73 190/1/73
f 200/1/73 190/1/73 191/1/73
f 145/1/74 199/1/74 146/1/74
f 199/1/74 145/1/74 189/1/74
f 189/1/74 145/1/74 188/1/74
f 188/1/74 145/1/74 196/1/74
f 137/1/75 197/1/75 135/1/75
f 197/1/75 137/1/75 182/1/75
f 182/1/75 137/1/75 183/1/75
f 183/1/75 137/1/75 194/1/75
f 204/1/76 139/1/76 140/1/76
f 139/1/76 204/1/76 195/1/76
f 195/1/76 204/1/76 185/1/76
f 195/1/76 185/1/76 184/1/76

g hexagon

v -9.422647 2 19
v -8.845295 2 20
v -8.845295 4 20
v -9.422647 4 21
v -9.422647 2 21
v -10.57735 2 21
v -11.15471 4 20
v -10.57735 4 19
v -11.15471 2 20
v -10.57735 2 19

vn 0.8660289 0 -0.5000018
vn -1.192093E-07 0 1.000004
vn 0.8660288 0 0.5000021
vn -0.8660288 0 -0.5000021
vn -0.8660289 0 0.5000018
vn 1.192093E-07 0 -1.000004


usemtl castle-turret

f 150/1/77 207/1/77 206/1/77
f 207/1/77 150/1/77 208/1/77
f 136/1/78 210/1/78 209/1/78
f 210/1/78 136/1/78 211/1/78
f 209/1/13 212/1/13 136/1/13
f 212/1/13 209/1/13 208/1/13
f 212/1/13 208/1/13 213/1/13
f 213/1/13 208/1/13 150/1/13
f 208/1/79 210/1/79 207/1/79
f 210/1/79 208/1/79 209/1/79
f 212/1/80 215/1/80 214/1/80
f 215/1/80 212/1/80 213/1/80
f 136/1/81 214/1/81 211/1/81
f 214/1/81 136/1/81 212/1/81
f 214/1/14 210/1/14 211/1/14
f 210/1/14 214/1/14 207/1/14
f 207/1/14 214/1/14 215/1/14
f 207/1/14 215/1/14 206/1/14
f 215/1/82 150/1/82 206/1/82
f 150/1/82 215/1/82 213/1/82

g hexagon_baseLarge%

v -9.307114 0 18.79988
v -9.307114 0.8 18.79988
v -10.69289 0 18.79988
v -10.69289 0.8 18.79988
v -8.614227 0 20
v -8.614227 0.8 20
v -9.422648 1.2 19
v -10.57735 1.2 19
v -11.38577 0.8 20
v -11.1547 1.2 20
v -10.69289 0.8 21.20012
v -10.57735 1.2 21
v -8.845297 1.2 20
v -10.69289 0 21.20012
v -11.38577 0 20
v -9.307114 0.8 21.20012
v -9.422648 1.2 21
v -9.307114 0 21.20012
v -8.845297 2 20
v -9.422648 2 19
v -10.57735 2 21
v -11.1547 2 20
v -9.422648 2 21
v -10.57735 2 19

vn 1.192093E-07 0 -1.000002
vn 0.8660273 0 -0.5000008
vn 1.192093E-07 0.4474141 -0.8943287
vn -0.7745113 0.4474141 -0.4471645
vn -0.7745115 0.4474141 0.4471642
vn 0.7745115 0.4474141 -0.4471642
vn -0.8660273 0 0.5000008
vn -1.192093E-07 0.4474141 0.8943287
vn 0.8660272 0 0.5000011
vn -0.8660272 0 -0.5000011
vn -1.192093E-07 0 1.000002
vn 0.7745113 0.4474141 0.4471645


usemtl castle-turret

f 218/1/83 217/1/83 216/1/83
f 217/1/83 218/1/83 219/1/83
f 217/1/84 220/1/84 216/1/84
f 220/1/84 217/1/84 221/1/84
f 219/1/85 222/1/85 217/1/85
f 222/1/85 219/1/85 223/1/85
f 225/1/86 219/1/86 224/1/86
f 219/1/86 225/1/86 223/1/86
f 227/1/87 224/1/87 226/1/87
f 224/1/87 227/1/87 225/1/87
f 222/1/88 221/1/88 217/1/88
f 221/1/88 222/1/88 228/1/88
f 226/1/89 230/1/89 229/1/89
f 230/1/89 226/1/89 224/1/89
f 232/1/90 226/1/90 231/1/90
f 226/1/90 232/1/90 227/1/90
f 221/1/91 233/1/91 220/1/91
f 233/1/91 221/1/91 231/1/91
f 224/1/92 218/1/92 230/1/92
f 218/1/92 224/1/92 219/1/92
f 226/1/93 233/1/93 231/1/93
f 233/1/93 226/1/93 229/1/93
f 228/1/94 231/1/94 221/1/94
f 231/1/94 228/1/94 232/1/94

usemtl castle-turret

f 222/1/84 234/1/84 228/1/84
f 234/1/84 222/1/84 235/1/84
f 238/1/13 237/1/13 236/1/13
f 237/1/13 238/1/13 234/1/13
f 237/1/13 234/1/13 239/1/13
f 239/1/13 234/1/13 235/1/13
f 236/1/93 232/1/93 238/1/93
f 232/1/93 236/1/93 227/1/93
f 236/1/89 225/1/89 227/1/89
f 225/1/89 236/1/89 237/1/89
f 223/1/83 235/1/83 222/1/83
f 235/1/83 223/1/83 239/1/83
f 234/1/91 232/1/91 228/1/91
f 232/1/91 234/1/91 238/1/91
f 230/1/14 233/1/14 229/1/14
f 233/1/14 230/1/14 220/1/14
f 220/1/14 230/1/14 218/1/14
f 220/1/14 218/1/14 216/1/14
f 237/1/92 223/1/92 225/1/92
f 223/1/92 237/1/92 239/1/92

