# Created by Kenney (www.kenney.nl)

mtllib spike.mtl

g hexagon_point

v -0.2886756 0 0.5000007
v 0.2886755 0 0.5000008
v -0.5773512 0 -5.960464E-08
v 0.5773512 0 5.960464E-08
v -0.2886755 0 -0.5000008
v 0.2886756 0 -0.5000007
v 0 2 0

vn 0 -2 0
vn 0.774598 0.8944272 -0.4472142
vn 0.7745979 0.8944272 0.4472144
vn -1.192093E-07 0.8944272 0.8944286
vn -0.774598 0.8944272 0.4472142
vn -0.7745979 0.8944272 -0.4472144
vn 1.192093E-07 0.8944272 -0.8944286

vt 0.4375 0.0625

usemtl spike

f 3/1/1 2/1/1 1/1/1
f 2/1/1 3/1/1 4/1/1
f 4/1/1 3/1/1 5/1/1
f 4/1/1 5/1/1 6/1/1
f 7/1/2 4/1/2 6/1/2
f 7/1/3 2/1/3 4/1/3
f 1/1/4 2/1/4 7/1/4
f 7/1/5 3/1/5 1/1/5
f 7/1/6 5/1/6 3/1/6
f 5/1/7 7/1/7 6/1/7

